<svg xmlns="http://www.w3.org/2000/svg" viewBox="0 0 1118 535">
  <defs>
    <linearGradient x1="0%" y1="0%" x2="0%" y2="100%" id="mx-gradient-dae8fc-1-7ea6e0-1-s-0">
      <stop offset="0%" style="stop-color: rgb(218, 232, 252); stop-opacity: 1;"/>
      <stop offset="100%" style="stop-color: rgb(126, 166, 224); stop-opacity: 1;"/>
    </linearGradient>
    <linearGradient x1="0%" y1="0%" x2="0%" y2="100%" id="mx-gradient-f5f5f5-1-b3b3b3-1-s-0">
      <stop offset="0%" style="stop-color: rgb(245, 245, 245); stop-opacity: 1;"/>
      <stop offset="100%" style="stop-color: rgb(179, 179, 179); stop-opacity: 1;"/>
    </linearGradient>
  </defs>
  
  <!-- Main Container -->
  <rect x="149" y="5.5" width="963" height="523.5" fill="rgb(255, 255, 255)" stroke="rgb(0, 0, 0)"/>
  
  <!-- Frontend and Backend Containers -->
  <rect x="161.5" y="47" width="401.5" height="455" rx="60.22" ry="60.22" fill="url(#mx-gradient-dae8fc-1-7ea6e0-1-s-0)" stroke="#6c8ebf"/>
  <rect x="585.5" y="47" width="499.5" height="455" rx="68.25" ry="68.25" fill="url(#mx-gradient-dae8fc-1-7ea6e0-1-s-0)" stroke="#6c8ebf"/>
  
  <!-- Database -->
  <path d="M 945.5 229.5 C 945.5 221.22 967.89 214.5 995.5 214.5 C 1008.76 214.5 1021.48 216.08 1030.86 218.89 C 1040.23 221.71 1045.5 225.52 1045.5 229.5 L 1045.5 314.5 C 1045.5 322.78 1023.11 329.5 995.5 329.5 C 967.89 329.5 945.5 322.78 945.5 314.5 Z" fill="#eeeeee" stroke="#36393d" stroke-miterlimit="10"/>
  <path d="M 1045.5 229.5 C 1045.5 237.78 1023.11 244.5 995.5 244.5 C 967.89 244.5 945.5 237.78 945.5 229.5" fill="none" stroke="#36393d" stroke-miterlimit="10"/>
  
  <!-- Backend Components -->
  <rect x="945.5" y="77" width="100" height="110" rx="15" ry="15" fill="#eeeeee" stroke="#36393d"/>
  <rect x="945.5" y="357" width="100" height="110" rx="15" ry="15" fill="#eeeeee" stroke="#36393d"/>
  <rect x="645.5" y="187" width="170" height="170" fill="#eeeeee" stroke="#36393d"/>
  
  <!-- Frontend Title -->
  <text x="360" y="71" font-family="Helvetica" font-size="18px" text-anchor="middle">Frontend</text>
  
  <!-- Backend Title -->
  <text x="836" y="71" font-family="Helvetica" font-size="18px" text-anchor="middle">Backend</text>
  
  <!-- Data Flow Arrows -->
  <path d="M 835 277 L 835 287.5 L 816 272 L 835 256.5 L 835 267 L 926 267 L 926 256.5 L 945 272 L 926 287.5 L 926 277 Z" fill="#f0a30a" stroke="#bd7000"/>
  <path d="M 833.05 237.13 L 840.31 244.72 L 815.86 246.65 L 818.88 222.32 L 826.13 229.91 L 924.95 135.38 L 917.69 127.79 L 942.14 125.86 L 939.12 150.19 L 931.87 142.6 Z" fill="#f0a30a" stroke="#bd7000"/>
  <path d="M 934.21 395.33 L 941.16 387.47 L 945.13 411.67 L 920.62 410.69 L 927.58 402.82 L 826.79 313.67 L 819.84 321.53 L 815.87 297.33 L 840.38 298.31 L 833.42 306.18 Z" fill="#f0a30a" stroke="#bd7000"/>
  <path d="M 582.5 277 L 582.5 287.5 L 563.5 272 L 582.5 256.5 L 582.5 267 L 626 267 L 626 256.5 L 645 272 L 626 287.5 L 626 277 Z" fill="#f0a30a" stroke="#bd7000"/>
  
  <!-- Project Title -->
  <text x="631" y="31" font-family="Helvetica" font-size="24px" text-anchor="middle" font-weight="bold">PopcornPicks</text>
  
  <!-- Backend Labels -->
  <text x="731" y="272" font-family="Helvetica" font-size="24px" text-anchor="middle">Flask API</text>
  <text x="731" y="292" font-family="Helvetica" font-size="12px" text-anchor="middle">Python</text>
  
  <text x="996" y="132" font-family="Helvetica" font-size="12px" text-anchor="middle">Recommender&#10;System</text>
  <text x="996" y="412" font-family="Helvetica" font-size="12px" text-anchor="middle">Email&#10;notification</text>
  <text x="996" y="287" font-family="Helvetica" font-size="12px" text-anchor="middle">MongoDB</text>
  
  <!-- Frontend Components -->
  <rect x="177.75" y="87" width="364.5" height="380" fill="#eeeeee" stroke="#36393d"/>
  <rect x="195" y="324" width="331.5" height="130" rx="19.5" ry="19.5" fill="#eeeeee" stroke="#36393d"/>
  
  <!-- Frontend Tech Stack -->
  <text x="361" y="375" font-family="Helvetica" font-size="14px" text-anchor="middle">React</text>
  
  <!-- Frontend Pages -->
  <rect x="195" y="102" width="92.5" height="205" fill="url(#mx-gradient-f5f5f5-1-b3b3b3-1-s-0)" stroke="#666666"/>
  <rect x="307.5" y="102" width="97.5" height="205" fill="url(#mx-gradient-f5f5f5-1-b3b3b3-1-s-0)" stroke="#666666"/>
  <rect x="426.75" y="102" width="97.5" height="205" fill="url(#mx-gradient-f5f5f5-1-b3b3b3-1-s-0)" stroke="#666666"/>
  
  <text x="238" y="205" font-family="Helvetica" font-size="12px" text-anchor="middle">Landing&#10;Page</text>
  <text x="356" y="205" font-family="Helvetica" font-size="12px" text-anchor="middle">Search&#10;Page</text>
  <text x="476" y="205" font-family="Helvetica" font-size="12px" text-anchor="middle">Success&#10;Page</text>
  
  <!-- User -->
  <ellipse cx="41" cy="204.13" rx="18" ry="17.125" fill="rgb(255, 255, 255)" stroke="rgb(0, 0, 0)"/>
  <path d="M 41 221.25 L 41 278.33 M 41 232.67 L 5 232.67 M 41 232.67 L 77 232.67 M 41 278.33 L 5 324 M 41 278.33 L 77 324" fill="none" stroke="rgb(0, 0, 0)"/>
  <text x="41" y="343" font-family="Helvetica" font-size="12px" text-anchor="middle">User</text>
  
  <!-- User Connection Arrow -->
  <path d="M 69.5 264 L 69.5 274.5 L 50.5 259 L 69.5 243.5 L 69.5 254 L 129.5 254 L 129.5 243.5 L 148.5 259 L 129.5 274.5 L 129.5 264 Z" fill="none" stroke="rgb(0, 0, 0)"/>
</svg>